<?xml version="1.0" encoding="utf-8"?>
<!-- Generator: Adobe Illustrator 26.5.0, SVG Export Plug-In . SVG Version: 6.00 Build 0)  -->
<svg version="1.1" id="Layer_1" xmlns="http://www.w3.org/2000/svg" xmlns:xlink="http://www.w3.org/1999/xlink" x="0px" y="0px"
	 viewBox="0 0 441.2 111.6" style="enable-background:new 0 0 441.2 111.6;" xml:space="preserve">
<style type="text/css">
	.st0{fill:url(#SVGID_1_);}
	.st1{fill:url(#SVGID_00000147211897277754628850000018207387256501162156_);}
	.st2{display:none;}
	.st3{display:inline;}
	.st4{fill:url(#SVGID_00000121265880375257094370000008489534122504283026_);}
	.st5{display:inline;fill:url(#SVGID_00000134943020469107023260000011767815400181249426_);}
	.st6{fill:url(#SVGID_00000029756342637219244550000010236318957490225583_);}
	.st7{display:none;fill:url(#SVGID_00000029026702630157487630000013818644479742010248_);}
	.st8{display:none;fill:url(#SVGID_00000055704764486035659920000011596379484792143791_);}
	.st9{display:none;opacity:0.44;fill:url(#SVGID_00000017484233696578446600000011931920581837689240_);enable-background:new    ;}
	.st10{fill:url(#SVGID_00000110439748156523602690000006313860618561598600_);}
	.st11{fill:url(#SVGID_00000133506566678040714170000017291023824007245708_);}
	.st12{display:inline;fill:url(#SVGID_00000089539432357339934580000004424763099482147771_);}
	.st13{fill:url(#SVGID_00000153676218169265478210000001084926222004470164_);}
	.st14{display:none;fill:url(#SVGID_00000065074009285908172470000012697479330774182303_);}
	.st15{display:none;fill:url(#SVGID_00000055708706115668382110000002751666292523975599_);}
	
		.st16{display:none;opacity:0.44;fill:url(#SVGID_00000109712570762079434340000013002493053111938211_);enable-background:new    ;}
	.st17{fill:url(#SVGID_00000057841084150759457200000017308168987429338529_);}
</style>
<g id="Layer_2_00000040572916169420191760000012121148214579748286_">
	<g>
		
			<linearGradient id="SVGID_1_" gradientUnits="userSpaceOnUse" x1="299.435" y1="312.7245" x2="229.0861" y2="-517.5329" gradientTransform="matrix(1 0 0 -1 0 -72)">
			<stop  offset="0" style="stop-color:#F5F5F7"/>
			<stop  offset="8.000000e-02" style="stop-color:#EBE9F7"/>
			<stop  offset="0.23" style="stop-color:#D2CAF8"/>
			<stop  offset="0.2359" style="stop-color:#CEC4F8"/>
			<stop  offset="0.2623" style="stop-color:#BEB1F9"/>
			<stop  offset="0.2925" style="stop-color:#B3A3F9"/>
			<stop  offset="0.3297" style="stop-color:#AC9AF9"/>
			<stop  offset="0.3942" style="stop-color:#AA98F9"/>
			<stop  offset="0.5409" style="stop-color:#8E75FA"/>
			<stop  offset="0.6337" style="stop-color:#866FE8"/>
			<stop  offset="0.75" style="stop-color:#7162BA"/>
			<stop  offset="0.92" style="stop-color:#514C70"/>
		</linearGradient>
		<path class="st0" d="M123.1,30.5v0.7c0,5.8-4.7,10.4-10.4,10.4H100v11.9h17.3v1c0,5.3-4.3,9.7-9.7,9.7H100v11.5
			c0,6.3-5.1,11.4-11.4,11.4h-2.4V39.4c0-4.9,4-8.9,8.9-8.9C95.1,30.5,123.1,30.5,123.1,30.5z M163,67.9h-27.2
			c0.2,2.8,1.1,4.9,2.7,6.4c1.6,1.5,3.5,2.2,5.8,2.2c3.4,0,5.8-1.5,7.2-4.4h14.7c-0.8,3-2.1,5.6-4.1,8s-4.4,4.2-7.4,5.6
			c-3,1.3-6.3,2-9.9,2c-4.4,0-8.3-0.9-11.8-2.8c-3.4-1.9-6.1-4.6-8.1-8.1c-1.9-3.5-2.9-7.6-2.9-12.3s1-8.8,2.9-12.3s4.6-6.2,8-8.1
			s7.4-2.8,11.9-2.8c4.4,0,8.2,0.9,11.6,2.7c3.4,1.8,6,4.4,7.9,7.8c1.9,3.4,2.9,7.3,2.9,11.9l0,0C167.2,66,165.3,67.9,163,67.9z
			 M153.1,60.2c0-2.4-0.8-4.2-2.4-5.6c-1.6-1.4-3.6-2.1-6.1-2.1c-2.3,0-4.3,0.7-5.8,2c-1.6,1.3-2.6,3.3-2.9,5.7L153.1,60.2z
			 M212.2,46.7c3.1,3.4,4.7,8.1,4.7,14.1v13.4c0,7.1-5.8,12.9-12.9,12.9h-0.8V62.6c0-3-0.8-5.4-2.3-7c-1.6-1.7-3.7-2.5-6.3-2.5
			s-4.7,0.8-6.3,2.5s-2.3,4-2.3,7v10.6c0,7.6-6.2,13.8-13.8,13.8l0,0V41.2c0-7.6,6.2-13.8,13.8-13.8l0,0v20.7c1.4-2,3.3-3.6,5.7-4.8
			s5.1-1.8,8.1-1.8C204.9,41.6,209,43.3,212.2,46.7z M266.9,42.1v32.1c0,7.2-5.8,12.9-12.9,12.9h-0.9V81c-1.4,2-3.3,3.6-5.7,4.8
			c-2.4,1.2-5,1.8-7.9,1.8c-3.4,0-6.5-0.8-9.1-2.3s-4.7-3.8-6.1-6.7c-1.5-2.9-2.2-6.3-2.2-10.2V55.8c0-7.6,6.1-13.7,13.7-13.7l0,0
			v24.4c0,3,0.8,5.4,2.3,7c1.6,1.7,3.7,2.5,6.3,2.5c2.7,0,4.8-0.8,6.4-2.5c1.6-1.7,2.3-4,2.3-7V55.9
			C253.1,48.3,259.3,42.1,266.9,42.1L266.9,42.1z M292,53.5v20.6c0,7.2-5.8,13-13,13h-0.8V53.5h-5v-6.4c0-2.8,2.2-5,5-5l0,0v-1.3
			c0-5.5,1.6-9.7,4.8-12.6c3.2-2.9,7.8-4.3,14-4.3c1,0,1.8,0,2.3,0.1v11.7c-2.6-0.2-4.5,0.2-5.6,1.1c-1.1,0.9-1.6,2.6-1.6,4.9v0.4
			h7.4v11.4H292z M319.6,27.4v45.9c0,7.6-6.2,13.8-13.8,13.8l0,0V41.2C305.8,33.6,312,27.4,319.6,27.4L319.6,27.4z M335.5,84.9
			c-3.5-1.9-6.3-4.6-8.3-8.1s-3-7.6-3-12.3c0-4.6,1-8.7,3.1-12.2c2-3.5,4.8-6.2,8.4-8.1c3.5-1.9,7.5-2.8,11.9-2.8s8.4,0.9,11.9,2.8
			c3.5,1.9,6.3,4.6,8.4,8.1c2,3.5,3.1,7.6,3.1,12.2s-1,8.7-3.1,12.2s-4.9,6.2-8.5,8.1s-7.6,2.8-12,2.8C343,87.7,339,86.8,335.5,84.9
			z M354.1,72.9c1.9-1.9,2.8-4.7,2.8-8.3c0-3.6-0.9-6.4-2.7-8.3c-1.8-1.9-4-2.9-6.7-2.9s-4.9,1-6.7,2.9c-1.8,1.9-2.7,4.7-2.7,8.4
			c0,3.6,0.9,6.4,2.6,8.3s3.9,2.9,6.6,2.9C350,75.8,352.3,74.8,354.1,72.9z M440.6,42.1l-8.2,30.3c-2.3,8.7-10.2,14.7-19.2,14.7l0,0
			L406,57.9l-3.6,14.5c-2.2,8.7-10,14.7-18.9,14.7l0,0l-8.7-31.7C373,48.7,378,42.1,385,42.1l0,0l6.4,32.2l4.2-18
			c2-8.3,9.4-14.2,18-14.2l0,0l7.7,32l3.8-19.2C426.5,47.4,433,42.1,440.6,42.1L440.6,42.1z"/>
	</g>
</g>
<g id="Layer_3">
	
		<linearGradient id="SVGID_00000008843213494466324040000018295581393235717543_" gradientUnits="userSpaceOnUse" x1="71.0477" y1="-83.2498" x2="-6.432" y2="145.5437">
		<stop  offset="0" style="stop-color:#F5F5F7"/>
		<stop  offset="8.000000e-02" style="stop-color:#EBE9F7"/>
		<stop  offset="0.23" style="stop-color:#D2CAF8"/>
		<stop  offset="0.2359" style="stop-color:#CEC4F8"/>
		<stop  offset="0.2623" style="stop-color:#BEB1F9"/>
		<stop  offset="0.2925" style="stop-color:#B3A3F9"/>
		<stop  offset="0.3297" style="stop-color:#AC9AF9"/>
		<stop  offset="0.3942" style="stop-color:#AA98F9"/>
		<stop  offset="0.56" style="stop-color:#8E75FA"/>
		<stop  offset="0.62" style="stop-color:#866FE8"/>
		<stop  offset="0.75" style="stop-color:#7162BA"/>
		<stop  offset="0.92" style="stop-color:#514C70"/>
	</linearGradient>
	<path style="fill:url(#SVGID_00000008843213494466324040000018295581393235717543_);" d="M47.4,28.8c5.8-5.1,6.4-14,1.3-19.8
		L24,30.6V17.7c-7.8,0-14,6.3-14,14V43v18.7v9v18.7v13.3c7.8,0,14-6.3,14-14V77l19.5-17.1c5.8-5.1,6.4-14,1.3-19.8L24,58.3v-9
		L47.4,28.8z"/>
</g>
<g id="Layer_2_00000106867392615937768020000001764602958454862244_">
	<g id="Logos_Fonts_00000021091394490755640410000004846339173795698844_" class="st2">
		<g id="Logos_00000067932557239631315640000004600363068863944629_" class="st3">
			
				<linearGradient id="SVGID_00000099653467722786462470000000839252231710480557_" gradientUnits="userSpaceOnUse" x1="262.7504" y1="217.2188" x2="253.6204" y2="661.8488" gradientTransform="matrix(1 0 0 1 0 -204)">
				<stop  offset="0" style="stop-color:#F5F5F7"/>
				<stop  offset="8.000000e-02" style="stop-color:#EBE9F7"/>
				<stop  offset="0.23" style="stop-color:#D2CAF8"/>
				<stop  offset="0.43" style="stop-color:#AA98F9"/>
				<stop  offset="0.56" style="stop-color:#8E75FA"/>
				<stop  offset="0.62" style="stop-color:#866FE8"/>
				<stop  offset="0.75" style="stop-color:#7162BA"/>
				<stop  offset="0.92" style="stop-color:#514C70"/>
				<stop  offset="1" style="stop-color:#42434F"/>
			</linearGradient>
			<path style="fill:url(#SVGID_00000099653467722786462470000000839252231710480557_);" d="M111.4,280v11.5h-24v12.4h17.9V315H87.4
				v23.8H73.1V280H111.4L111.4,280z M157,318.9h-32.4c0.2,2.9,1.2,5.1,2.8,6.7c1.6,1.5,3.7,2.3,6.1,2.3c3.6,0,6.1-1.5,7.5-4.5h15.3
				c-0.8,3.1-2.2,5.8-4.2,8.3s-4.6,4.4-7.7,5.8c-3.1,1.4-6.5,2.1-10.3,2.1c-4.6,0-8.7-1-12.2-2.9c-3.6-2-6.4-4.8-8.4-8.4
				c-2-3.6-3-7.9-3-12.7s1-9.1,3-12.7c2-3.6,4.8-6.4,8.3-8.4c3.6-2,7.7-2.9,12.3-2.9s8.6,1,12.1,2.8c3.5,1.9,6.3,4.6,8.3,8.1
				s3,7.6,3,12.3C157.2,316,157.2,317.4,157,318.9L157,318.9z M142.6,310.9c0-2.5-0.8-4.4-2.5-5.9s-3.8-2.2-6.3-2.2
				s-4.4,0.7-6.1,2.1c-1.7,1.4-2.7,3.4-3.1,6H142.6L142.6,310.9z M203.9,296.9c3.2,3.5,4.9,8.4,4.9,14.6v27.3h-14.2v-25.4
				c0-3.1-0.8-5.6-2.4-7.3s-3.8-2.6-6.5-2.6s-4.9,0.9-6.5,2.6c-1.6,1.7-2.4,4.2-2.4,7.3v25.4h-14.3v-62h14.3v21.5
				c1.4-2.1,3.4-3.7,5.9-5c2.5-1.3,5.3-1.8,8.5-1.8C196.4,291.5,200.7,293.3,203.9,296.9L203.9,296.9z M260.7,292v46.8h-14.3v-6.4
				c-1.4,2.1-3.4,3.7-5.9,5c-2.5,1.3-5.2,1.9-8.3,1.9c-3.6,0-6.7-0.8-9.5-2.4c-2.8-1.6-4.9-3.9-6.4-6.9s-2.3-6.6-2.3-10.7V292h14.2
				v25.4c0,3.1,0.8,5.6,2.4,7.3s3.8,2.6,6.5,2.6s5-0.9,6.6-2.6c1.6-1.7,2.4-4.2,2.4-7.3V292H260.7L260.7,292z M294.5,303.9h-7.7
				v34.9h-14.3v-34.9h-5.2V292h5.2v-1.3c0-5.8,1.6-10.1,5-13.1c3.3-3,8.1-4.5,14.5-4.5c1.1,0,1.8,0,2.4,0.1v12.1
				c-2.7-0.2-4.7,0.2-5.8,1.2c-1.1,1-1.7,2.7-1.7,5.1v0.4h7.7L294.5,303.9L294.5,303.9z M315.6,276.8v62h-14.3v-62
				C301.2,276.8,315.6,276.8,315.6,276.8z M332,336.6c-3.7-2-6.5-4.8-8.6-8.4c-2.1-3.6-3.1-7.9-3.1-12.7s1.1-9,3.2-12.7
				c2.1-3.7,5-6.5,8.7-8.4c3.7-2,7.8-2.9,12.4-2.9s8.7,1,12.4,2.9c3.7,2,6.6,4.8,8.7,8.4c2.1,3.7,3.2,7.9,3.2,12.7s-1.1,9-3.2,12.7
				c-2.1,3.7-5.1,6.5-8.8,8.4c-3.7,2-7.9,2.9-12.5,2.9S335.7,338.5,332,336.6L332,336.6z M351.4,324.1c1.9-2,2.9-4.9,2.9-8.6
				c0-3.7-0.9-6.6-2.8-8.6s-4.2-3-6.9-3s-5.1,1-7,3c-1.8,2-2.8,4.9-2.8,8.7s0.9,6.6,2.7,8.6c1.8,2,4.1,3,6.8,3
				S349.4,326.1,351.4,324.1L351.4,324.1z M441.2,292l-12.7,46.8h-15.8l-7.4-30.3l-7.6,30.3h-15.8L369.2,292h14.3l6.6,33.5L398,292
				h15.2l8,33.3l6.5-33.3H441.2L441.2,292z"/>
		</g>
	</g>
	<g id="Icons_00000119104905543353808030000016054388547594159272_" class="st2">
		
			<linearGradient id="SVGID_00000128469567847331098290000014232200721708039357_" gradientUnits="userSpaceOnUse" x1="57.0623" y1="354.8241" x2="-2.2977" y2="581.4341" gradientTransform="matrix(1 0 0 1 0 -204)">
			<stop  offset="0" style="stop-color:#F5F5F7"/>
			<stop  offset="8.000000e-02" style="stop-color:#EBE9F7"/>
			<stop  offset="0.23" style="stop-color:#D2CAF8"/>
			<stop  offset="0.43" style="stop-color:#AA98F9"/>
			<stop  offset="0.56" style="stop-color:#8E75FA"/>
			<stop  offset="0.62" style="stop-color:#866FE8"/>
			<stop  offset="0.75" style="stop-color:#7162BA"/>
			<stop  offset="0.92" style="stop-color:#514C70"/>
		</linearGradient>
		<path style="display:inline;fill:url(#SVGID_00000128469567847331098290000014232200721708039357_);" d="M41.6,287.6L41.6,287.6
			l-24.8,20.8V292l28-24.6c5-4.4,5.4-11.9,1.1-16.9l0,0l-29.1,25.6v-15.5h-5.5c-6.2,0-11.3,5.1-11.3,11.3V362l0,0
			c9.3,0,16.8-7.5,16.8-16.8v-21l23.7-19.9C45.4,300.1,45.9,292.5,41.6,287.6L41.6,287.6z"/>
	</g>
	<g>
		
			<linearGradient id="SVGID_00000125595322264231750230000018068748062312776834_" gradientUnits="userSpaceOnUse" x1="268.8853" y1="-96.2272" x2="260.0917" y2="-524.1555" gradientTransform="matrix(1 0 0 -1 0 -72)">
			<stop  offset="0" style="stop-color:#F5F5F7"/>
			<stop  offset="8.386584e-02" style="stop-color:#ECE9F7"/>
			<stop  offset="0.2344" style="stop-color:#D3CAF8"/>
			<stop  offset="0.4327" style="stop-color:#AA98F9"/>
			<stop  offset="0.5576" style="stop-color:#8E75FA"/>
			<stop  offset="0.6208" style="stop-color:#8670E8"/>
			<stop  offset="0.7472" style="stop-color:#7262BA"/>
			<stop  offset="0.9234" style="stop-color:#514D71"/>
			<stop  offset="0.9993" style="stop-color:#42434F"/>
		</linearGradient>
		<path style="fill:url(#SVGID_00000125595322264231750230000018068748062312776834_);" d="M123.1,281v0.7c0,5.8-4.7,10.4-10.4,10.4
			H100V304h17.3v1c0,5.3-4.3,9.7-9.7,9.7H100v11.5c0,6.3-5.1,11.4-11.4,11.4h-2.4v-47.7c0-4.9,4-8.9,8.9-8.9
			C95.1,281,123.1,281,123.1,281z M163,318.4h-27.2c0.2,2.8,1.1,4.9,2.7,6.4c1.6,1.5,3.5,2.2,5.8,2.2c3.4,0,5.8-1.5,7.2-4.4h14.7
			c-0.8,3-2.1,5.6-4.1,8s-4.4,4.2-7.4,5.6c-3,1.3-6.3,2-9.9,2c-4.4,0-8.3-0.9-11.8-2.8c-3.4-1.9-6.1-4.6-8.1-8.1
			c-1.9-3.5-2.9-7.6-2.9-12.3s1-8.8,2.9-12.3s4.6-6.2,8-8.1c3.4-1.9,7.4-2.8,11.9-2.8c4.4,0,8.2,0.9,11.6,2.7c3.4,1.8,6,4.4,7.9,7.8
			s2.9,7.3,2.9,11.9l0,0C167.2,316.5,165.3,318.4,163,318.4z M153.1,310.7c0-2.4-0.8-4.2-2.4-5.6c-1.6-1.4-3.6-2.1-6.1-2.1
			c-2.3,0-4.3,0.7-5.8,2c-1.6,1.3-2.6,3.3-2.9,5.7H153.1z M212.2,297.2c3.1,3.4,4.7,8.1,4.7,14.1v13.4c0,7.1-5.8,12.9-12.9,12.9
			h-0.8v-24.5c0-3-0.8-5.4-2.3-7c-1.6-1.7-3.7-2.5-6.3-2.5s-4.7,0.8-6.3,2.5c-1.6,1.7-2.3,4-2.3,7v10.6c0,7.6-6.2,13.8-13.8,13.8
			l0,0v-45.8c0-7.6,6.2-13.8,13.8-13.8l0,0v20.7c1.4-2,3.3-3.6,5.7-4.8c2.4-1.2,5.1-1.8,8.1-1.8C204.9,292.1,209,293.8,212.2,297.2z
			 M266.9,292.6v32.1c0,7.2-5.8,12.9-12.9,12.9h-0.9v-6.1c-1.4,2-3.3,3.6-5.7,4.8c-2.4,1.2-5,1.8-7.9,1.8c-3.4,0-6.5-0.8-9.1-2.3
			s-4.7-3.8-6.1-6.7c-1.5-2.9-2.2-6.3-2.2-10.2v-12.6c0-7.6,6.1-13.7,13.7-13.7l0,0V317c0,3,0.8,5.4,2.3,7c1.6,1.7,3.7,2.5,6.3,2.5
			c2.7,0,4.8-0.8,6.4-2.5c1.6-1.7,2.3-4,2.3-7v-10.6C253.1,298.8,259.3,292.6,266.9,292.6L266.9,292.6z M292,304v20.6
			c0,7.2-5.8,13-13,13h-0.8V304h-5v-6.4c0-2.8,2.2-5,5-5l0,0v-1.3c0-5.5,1.6-9.7,4.8-12.6c3.2-2.9,7.8-4.3,14-4.3c1,0,1.8,0,2.3,0.1
			v11.7c-2.6-0.2-4.5,0.2-5.6,1.1c-1.1,0.9-1.6,2.6-1.6,4.9v0.4h7.4V304H292z M319.6,277.9v45.9c0,7.6-6.2,13.8-13.8,13.8l0,0v-45.9
			C305.8,284.1,312,277.9,319.6,277.9L319.6,277.9z M335.5,335.4c-3.5-1.9-6.3-4.6-8.3-8.1s-3-7.6-3-12.3c0-4.6,1-8.7,3.1-12.2
			c2-3.5,4.8-6.2,8.4-8.1c3.5-1.9,7.5-2.8,11.9-2.8s8.4,0.9,11.9,2.8c3.5,1.9,6.3,4.6,8.4,8.1c2,3.5,3.1,7.6,3.1,12.2
			s-1,8.7-3.1,12.2s-4.9,6.2-8.5,8.1s-7.6,2.8-12,2.8C343,338.2,339,337.3,335.5,335.4z M354.1,323.4c1.9-1.9,2.8-4.7,2.8-8.3
			s-0.9-6.4-2.7-8.3c-1.8-1.9-4-2.9-6.7-2.9s-4.9,1-6.7,2.9c-1.8,1.9-2.7,4.7-2.7,8.4c0,3.6,0.9,6.4,2.6,8.3s3.9,2.9,6.6,2.9
			C350,326.3,352.3,325.3,354.1,323.4z M440.6,292.6l-8.2,30.3c-2.3,8.7-10.2,14.7-19.2,14.7l0,0l-7.2-29.2l-3.6,14.5
			c-2.2,8.7-10,14.7-18.9,14.7l0,0l-8.7-31.7c-1.8-6.7,3.2-13.3,10.2-13.3l0,0l6.4,32.2l4.2-18c2-8.3,9.4-14.2,18-14.2l0,0l7.7,32
			l3.8-19.2C426.5,297.9,433,292.6,440.6,292.6L440.6,292.6z"/>
		
			<linearGradient id="SVGID_00000039829321986649194200000002985730004682669962_" gradientUnits="userSpaceOnUse" x1="268.8268" y1="89.7829" x2="260.0328" y2="-338.1606" gradientTransform="matrix(1 0 0 -1 0 114)">
			<stop  offset="0" style="stop-color:#F5F5F7"/>
			<stop  offset="8.386584e-02" style="stop-color:#ECE9F7"/>
			<stop  offset="0.2344" style="stop-color:#D3CAF8"/>
			<stop  offset="0.4327" style="stop-color:#AA98F9"/>
			<stop  offset="0.5576" style="stop-color:#8E75FA"/>
			<stop  offset="0.6208" style="stop-color:#8670E8"/>
			<stop  offset="0.7472" style="stop-color:#7262BA"/>
			<stop  offset="0.9234" style="stop-color:#514D71"/>
			<stop  offset="0.9993" style="stop-color:#42434F"/>
		</linearGradient>
		<path style="display:none;fill:url(#SVGID_00000039829321986649194200000002985730004682669962_);" d="M123.1,281v0.7
			c0,5.8-4.7,10.4-10.4,10.4H100V304h17.3v1c0,5.3-4.3,9.7-9.7,9.7H100v11.5c0,5.1-3.4,9.4-8,10.9c-1.1,0.3-2.2,0.5-3.4,0.5h-2.4
			v-53.4c0-6.2,5.1-11.3,11.3-11.3h2.5v8.1C106.6,281,123.1,281,123.1,281z M167.2,314.2L167.2,314.2c0-4.6-1-8.5-2.9-11.9
			c-1.9-3.4-4.5-6-7.9-7.8c-3.4-1.8-7.2-2.7-11.6-2.7c-4.5,0-8.5,0.9-11.9,2.8s-6.1,4.6-8,8.1s-2.9,7.6-2.9,12.3
			c0,4.7,1,8.8,2.9,12.3c2,3.5,4.7,6.2,8.1,8.1c3.5,1.9,7.4,2.8,11.8,2.8c3.6,0,6.9-0.7,9.9-2c3-1.4,5.4-3.2,7.4-5.6
			c2-2.4,3.3-5,4.1-8h-14.7c-1.4,2.9-3.8,4.4-7.2,4.4c-2.3,0-4.2-0.7-5.8-2.2s-2.5-3.6-2.7-6.4H163
			C165.3,318.4,167.2,316.5,167.2,314.2z M135.9,310.7c0.3-2.4,1.3-4.4,2.9-5.7c1.5-1.3,3.5-2,5.8-2c2.5,0,4.5,0.7,6.1,2.1
			s2.4,3.2,2.4,5.6H135.9z M199.8,292c-3,0-5.7,0.6-8.1,1.8c-2.4,1.2-4.3,2.8-5.7,4.8v-20.7l0,0c-7.6,0-13.8,6.2-13.8,13.8v45.8l0,0
			c7.6,0,13.8-6.2,13.8-13.8v-10.6c0-3,0.7-5.3,2.3-7c1.6-1.7,3.7-2.5,6.3-2.5s4.7,0.8,6.3,2.5c1.5,1.6,2.3,4,2.3,7v24.5h0.8
			c7.1,0,12.9-5.8,12.9-12.9v-13.4c0-6-1.6-10.7-4.7-14.1C209,293.8,204.9,292.1,199.8,292z M266.9,292.6c-7.6,0-13.8,6.2-13.8,13.8
			V317c0,3-0.7,5.3-2.3,7c-1.6,1.7-3.7,2.5-6.4,2.5c-2.6,0-4.7-0.8-6.3-2.5c-1.5-1.6-2.3-4-2.3-7v-24.4l0,0
			c-7.6,0-13.7,6.1-13.7,13.7v12.6c0,3.9,0.7,7.3,2.2,10.2c1.4,2.9,3.5,5.2,6.1,6.7s5.7,2.3,9.1,2.3c2.9,0,5.5-0.6,7.9-1.8
			c2.4-1.2,4.3-2.8,5.7-4.8v6.1h0.9c7.1,0,12.9-5.7,12.9-12.9V292.6L266.9,292.6z M299.5,304v-11.4h-7.4v-0.4c0-2.3,0.5-4,1.6-4.9
			c1.1-0.9,3-1.3,5.6-1.1v-11.7c-0.5-0.1-1.3-0.1-2.3-0.1c-6.2,0-10.8,1.4-14,4.3c-3.2,2.9-4.8,7.1-4.8,12.6v1.3l0,0
			c-2.8,0-5,2.2-5,5v6.4h5v33.6h0.8c7.2,0,13-5.8,13-13V304H299.5z M319.6,277.9c-7.6,0-13.8,6.2-13.8,13.8v45.9l0,0
			c7.6,0,13.8-6.2,13.8-13.8V277.9L319.6,277.9z M347.4,338.1c4.4,0,8.4-0.9,12-2.8c3.6-1.9,6.4-4.6,8.5-8.1s3.1-7.6,3.1-12.2
			s-1.1-8.7-3.1-12.2c-2.1-3.5-4.9-6.2-8.4-8.1c-3.5-1.9-7.5-2.8-11.9-2.8s-8.4,0.9-11.9,2.8c-3.6,1.9-6.4,4.6-8.4,8.1
			c-2.1,3.5-3.1,7.6-3.1,12.2c0,4.7,1,8.8,3,12.3s4.8,6.2,8.3,8.1S343,338.2,347.4,338.1z M347.3,326.4c-2.7,0-4.9-1-6.6-2.9
			s-2.6-4.7-2.6-8.3c0-3.7,0.9-6.5,2.7-8.4c1.8-1.9,4-2.9,6.7-2.9s4.9,1,6.7,2.9c1.8,1.9,2.7,4.7,2.7,8.3s-0.9,6.4-2.8,8.3
			C352.3,325.3,350,326.3,347.3,326.4z M440.6,292.6c-7.6,0-14.1,5.3-15.5,12.8l-3.8,19.2l-7.7-32l0,0c-8.6,0-16,5.9-18,14.2
			l-4.2,18l-6.4-32.2l0,0c-7,0-12,6.6-10.2,13.3l8.7,31.7l0,0c8.9,0,16.7-6,18.9-14.7l3.6-14.5l7.2,29.2l0,0c9,0,16.9-6,19.2-14.7
			L440.6,292.6L440.6,292.6z"/>
		
			<linearGradient id="SVGID_00000026130763028440614380000009153385374994052759_" gradientUnits="userSpaceOnUse" x1="55.9426" y1="-228.6687" x2="-1.191" y2="-446.7653" gradientTransform="matrix(1 0 0 -1 0 -72)">
			<stop  offset="0" style="stop-color:#F5F5F7"/>
			<stop  offset="8.000000e-02" style="stop-color:#EBE9F7"/>
			<stop  offset="0.23" style="stop-color:#D2CAF8"/>
			<stop  offset="0.43" style="stop-color:#AA98F9"/>
			<stop  offset="0.56" style="stop-color:#8E75FA"/>
			<stop  offset="0.62" style="stop-color:#866FE8"/>
			<stop  offset="0.75" style="stop-color:#7162BA"/>
			<stop  offset="0.92" style="stop-color:#514C70"/>
		</linearGradient>
		<path style="display:none;fill:url(#SVGID_00000026130763028440614380000009153385374994052759_);" d="M41,288.3L41,288.3
			l-23.9,20v-15.8l27-23.7c4.8-4.2,5.2-11.5,1.1-16.2l0,0l-28,24.6v-14.8h-5.3c-6,0-10.9,4.9-10.9,10.9v86.6l0,0
			c8.9,0,16.1-7.2,16.1-16.1v-20.1L40,304.5C44.7,300.3,45.2,293.1,41,288.3z"/>
	</g>
	
		<linearGradient id="SVGID_00000163769899157064533680000018124365055668475542_" gradientUnits="userSpaceOnUse" x1="199.5972" y1="260.9896" x2="191.8083" y2="640.3076" gradientTransform="matrix(1 0 0 1 0 -204)">
		<stop  offset="0" style="stop-color:#F5F5F7"/>
		<stop  offset="8.000000e-02" style="stop-color:#EBE9F7"/>
		<stop  offset="0.23" style="stop-color:#D2CAF8"/>
		<stop  offset="0.43" style="stop-color:#AA98F9"/>
		<stop  offset="0.56" style="stop-color:#8E75FA"/>
		<stop  offset="0.62" style="stop-color:#866FE8"/>
		<stop  offset="0.75" style="stop-color:#7162BA"/>
		<stop  offset="0.92" style="stop-color:#514C70"/>
		<stop  offset="1" style="stop-color:#42434F"/>
	</linearGradient>
	
		<path style="display:none;opacity:0.44;fill:url(#SVGID_00000163769899157064533680000018124365055668475542_);enable-background:new    ;" d="
		M212.1,297.2c3.1,3.4,4.7,8.1,4.7,14v26.3h-13.7v-24.4c0-3-0.8-5.4-2.3-7s-3.7-2.5-6.3-2.5s-4.7,0.9-6.3,2.5c-1.5,1.6-2.3,4-2.3,7
		v24.4h-13.8v-59.6h13.8v20.7c1.4-2,3.3-3.6,5.7-4.8c2.4-1.2,5.1-1.7,8.2-1.7C204.9,292,209,293.8,212.1,297.2L212.1,297.2z"/>
</g>
<g id="Layer_3_00000078732111558611416130000017248074745126178204_">
	
		<linearGradient id="SVGID_00000151532542013913297670000011290022725623971007_" gradientUnits="userSpaceOnUse" x1="71.0477" y1="167.2089" x2="-6.432" y2="396.0023">
		<stop  offset="0" style="stop-color:#F5F5F7"/>
		<stop  offset="8.000000e-02" style="stop-color:#EBE9F7"/>
		<stop  offset="0.23" style="stop-color:#D2CAF8"/>
		<stop  offset="0.2359" style="stop-color:#CEC4F8"/>
		<stop  offset="0.2623" style="stop-color:#BEB1F9"/>
		<stop  offset="0.2925" style="stop-color:#B3A3F9"/>
		<stop  offset="0.3297" style="stop-color:#AC9AF9"/>
		<stop  offset="0.3942" style="stop-color:#AA98F9"/>
		<stop  offset="0.56" style="stop-color:#8E75FA"/>
		<stop  offset="0.62" style="stop-color:#866FE8"/>
		<stop  offset="0.75" style="stop-color:#7162BA"/>
		<stop  offset="0.92" style="stop-color:#514C70"/>
	</linearGradient>
	<path style="fill:url(#SVGID_00000151532542013913297670000011290022725623971007_);" d="M47.4,279.3c5.8-5.1,6.4-14,1.3-19.8
		L24,281.1v-12.9c-7.8,0-14,6.3-14,14v11.3v18.7v9v18.7v13.3c7.8,0,14-6.3,14-14v-11.7l19.5-17.1c5.8-5.1,6.4-14,1.3-19.8L24,308.8
		v-9L47.4,279.3z"/>
</g>
<g id="Layer_2_00000041983604761451092450000013361961499601481891_">
	<g id="Logos_Fonts_00000032648623058666736700000017436938381917368467_" class="st2">
		<g id="Logos_00000138542589866376046110000015825192453775402666_" class="st3">
			
				<linearGradient id="SVGID_00000027598474677359301710000003390757117241910427_" gradientUnits="userSpaceOnUse" x1="262.7504" y1="92.7329" x2="253.6204" y2="537.3629" gradientTransform="matrix(1 0 0 1 0 -204)">
				<stop  offset="0" style="stop-color:#F5F5F7"/>
				<stop  offset="8.000000e-02" style="stop-color:#EBE9F7"/>
				<stop  offset="0.23" style="stop-color:#D2CAF8"/>
				<stop  offset="0.43" style="stop-color:#AA98F9"/>
				<stop  offset="0.56" style="stop-color:#8E75FA"/>
				<stop  offset="0.62" style="stop-color:#866FE8"/>
				<stop  offset="0.75" style="stop-color:#7162BA"/>
				<stop  offset="0.92" style="stop-color:#514C70"/>
				<stop  offset="1" style="stop-color:#42434F"/>
			</linearGradient>
			<path style="fill:url(#SVGID_00000027598474677359301710000003390757117241910427_);" d="M111.4,155.5V167h-24v12.4h17.9v11.1
				H87.4v23.8H73.1v-58.8H111.4L111.4,155.5z M157,194.4h-32.4c0.2,2.9,1.2,5.1,2.8,6.7c1.6,1.5,3.7,2.3,6.1,2.3
				c3.6,0,6.1-1.5,7.5-4.5h15.3c-0.8,3.1-2.2,5.8-4.2,8.3s-4.6,4.4-7.7,5.8c-3.1,1.4-6.5,2.1-10.3,2.1c-4.6,0-8.7-1-12.2-2.9
				c-3.6-2-6.4-4.8-8.4-8.4c-2-3.6-3-7.9-3-12.7c0-4.8,1-9.1,3-12.7s4.8-6.4,8.3-8.4c3.6-2,7.7-2.9,12.3-2.9s8.6,1,12.1,2.8
				c3.5,1.9,6.3,4.6,8.3,8.1c2,3.5,3,7.6,3,12.3C157.2,191.5,157.2,192.9,157,194.4L157,194.4z M142.6,186.4c0-2.5-0.8-4.4-2.5-5.9
				s-3.8-2.2-6.3-2.2s-4.4,0.7-6.1,2.1c-1.7,1.4-2.7,3.4-3.1,6L142.6,186.4L142.6,186.4z M203.9,172.4c3.2,3.5,4.9,8.4,4.9,14.6
				v27.3h-14.2v-25.4c0-3.1-0.8-5.6-2.4-7.3s-3.8-2.6-6.5-2.6s-4.9,0.9-6.5,2.6s-2.4,4.2-2.4,7.3v25.4h-14.3v-62h14.3v21.5
				c1.4-2.1,3.4-3.7,5.9-5s5.3-1.8,8.5-1.8C196.4,167,200.7,168.8,203.9,172.4L203.9,172.4z M260.7,167.5v46.8h-14.3v-6.4
				c-1.4,2.1-3.4,3.7-5.9,5s-5.2,1.9-8.3,1.9c-3.6,0-6.7-0.8-9.5-2.4c-2.8-1.6-4.9-3.9-6.4-6.9s-2.3-6.6-2.3-10.7v-27.3h14.2v25.4
				c0,3.1,0.8,5.6,2.4,7.3c1.6,1.7,3.8,2.6,6.5,2.6s5-0.9,6.6-2.6s2.4-4.2,2.4-7.3v-25.4H260.7L260.7,167.5z M294.5,179.4h-7.7v34.9
				h-14.3v-34.9h-5.2v-11.9h5.2v-1.3c0-5.8,1.6-10.1,5-13.1c3.3-3,8.1-4.5,14.5-4.5c1.1,0,1.8,0,2.4,0.1v12.1
				c-2.7-0.2-4.7,0.2-5.8,1.2c-1.1,1-1.7,2.7-1.7,5.1v0.4h7.7L294.5,179.4L294.5,179.4z M315.6,152.3v62h-14.3v-62
				C301.2,152.3,315.6,152.3,315.6,152.3z M332,212.1c-3.7-2-6.5-4.8-8.6-8.4c-2.1-3.6-3.1-7.9-3.1-12.7c0-4.8,1.1-9,3.2-12.7
				s5-6.5,8.7-8.4c3.7-2,7.8-2.9,12.4-2.9s8.7,1,12.4,2.9c3.7,2,6.6,4.8,8.7,8.4c2.1,3.7,3.2,7.9,3.2,12.7c0,4.8-1.1,9-3.2,12.7
				s-5.1,6.5-8.8,8.4c-3.7,2-7.9,2.9-12.5,2.9S335.7,214,332,212.1L332,212.1z M351.4,199.6c1.9-2,2.9-4.9,2.9-8.6s-0.9-6.6-2.8-8.6
				s-4.2-3-6.9-3s-5.1,1-7,3c-1.8,2-2.8,4.9-2.8,8.7c0,3.8,0.9,6.6,2.7,8.6c1.8,2,4.1,3,6.8,3S349.4,201.6,351.4,199.6L351.4,199.6z
				 M441.2,167.5l-12.7,46.8h-15.8l-7.4-30.3l-7.6,30.3h-15.8l-12.7-46.8h14.3l6.6,33.5l7.9-33.5h15.2l8,33.3l6.5-33.3H441.2
				L441.2,167.5z"/>
		</g>
	</g>
	<g id="Icons_00000153663126941717740990000006257757869185514629_" class="st2">
		
			<linearGradient id="SVGID_00000113345050123603389780000009469364209905251468_" gradientUnits="userSpaceOnUse" x1="57.0623" y1="230.3381" x2="-2.2977" y2="456.9481" gradientTransform="matrix(1 0 0 1 0 -204)">
			<stop  offset="0" style="stop-color:#F5F5F7"/>
			<stop  offset="8.000000e-02" style="stop-color:#EBE9F7"/>
			<stop  offset="0.23" style="stop-color:#D2CAF8"/>
			<stop  offset="0.43" style="stop-color:#AA98F9"/>
			<stop  offset="0.56" style="stop-color:#8E75FA"/>
			<stop  offset="0.62" style="stop-color:#866FE8"/>
			<stop  offset="0.75" style="stop-color:#7162BA"/>
			<stop  offset="0.92" style="stop-color:#514C70"/>
		</linearGradient>
		<path style="display:inline;fill:url(#SVGID_00000113345050123603389780000009469364209905251468_);" d="M41.6,163.1L41.6,163.1
			l-24.8,20.8v-16.4l28-24.6c5-4.4,5.4-11.9,1.1-16.9l0,0l-29.1,25.6v-15.5h-5.5c-6.2,0-11.3,5.1-11.3,11.3v90.1l0,0
			c9.3,0,16.8-7.5,16.8-16.8v-21l23.7-19.9C45.4,175.6,45.9,168,41.6,163.1L41.6,163.1z"/>
	</g>
	<g>
		
			<linearGradient id="SVGID_00000023964353348733556560000017303726793486182070_" gradientUnits="userSpaceOnUse" x1="268.8853" y1="28.2587" x2="260.0917" y2="-399.6695" gradientTransform="matrix(1 0 0 -1 0 -72)">
			<stop  offset="0" style="stop-color:#F5F5F7"/>
			<stop  offset="8.386584e-02" style="stop-color:#ECE9F7"/>
			<stop  offset="0.2344" style="stop-color:#D3CAF8"/>
			<stop  offset="0.4327" style="stop-color:#AA98F9"/>
			<stop  offset="0.5576" style="stop-color:#8E75FA"/>
			<stop  offset="0.6208" style="stop-color:#8670E8"/>
			<stop  offset="0.7472" style="stop-color:#7262BA"/>
			<stop  offset="0.9234" style="stop-color:#514D71"/>
			<stop  offset="0.9993" style="stop-color:#42434F"/>
		</linearGradient>
		<path style="fill:url(#SVGID_00000023964353348733556560000017303726793486182070_);" d="M123.1,156.5v0.7
			c0,5.8-4.7,10.4-10.4,10.4H100v11.9h17.3v1c0,5.3-4.3,9.7-9.7,9.7H100v11.5c0,6.3-5.1,11.4-11.4,11.4h-2.4v-47.7
			c0-4.9,4-8.9,8.9-8.9C95.1,156.5,123.1,156.5,123.1,156.5z M163,193.9h-27.2c0.2,2.8,1.1,4.9,2.7,6.4c1.6,1.5,3.5,2.2,5.8,2.2
			c3.4,0,5.8-1.5,7.2-4.4h14.7c-0.8,3-2.1,5.6-4.1,8c-2,2.4-4.4,4.2-7.4,5.6c-3,1.3-6.3,2-9.9,2c-4.4,0-8.3-0.9-11.8-2.8
			c-3.4-1.9-6.1-4.6-8.1-8.1c-1.9-3.5-2.9-7.6-2.9-12.3c0-4.7,1-8.8,2.9-12.3s4.6-6.2,8-8.1c3.4-1.9,7.4-2.8,11.9-2.8
			c4.4,0,8.2,0.9,11.6,2.7c3.4,1.8,6,4.4,7.9,7.8c1.9,3.4,2.9,7.3,2.9,11.9l0,0C167.2,192,165.3,193.9,163,193.9z M153.1,186.2
			c0-2.4-0.8-4.2-2.4-5.6c-1.6-1.4-3.6-2.1-6.1-2.1c-2.3,0-4.3,0.7-5.8,2c-1.6,1.3-2.6,3.3-2.9,5.7L153.1,186.2z M212.2,172.7
			c3.1,3.4,4.7,8.1,4.7,14.1v13.4c0,7.1-5.8,12.9-12.9,12.9h-0.8v-24.5c0-3-0.8-5.4-2.3-7c-1.6-1.7-3.7-2.5-6.3-2.5
			s-4.7,0.8-6.3,2.5c-1.6,1.7-2.3,4-2.3,7v10.6c0,7.6-6.2,13.8-13.8,13.8l0,0v-45.8c0-7.6,6.2-13.8,13.8-13.8l0,0v20.7
			c1.4-2,3.3-3.6,5.7-4.8s5.1-1.8,8.1-1.8C204.9,167.6,209,169.3,212.2,172.7z M266.9,168.1v32.1c0,7.2-5.8,12.9-12.9,12.9h-0.9V207
			c-1.4,2-3.3,3.6-5.7,4.8s-5,1.8-7.9,1.8c-3.4,0-6.5-0.8-9.1-2.3s-4.7-3.8-6.1-6.7c-1.5-2.9-2.2-6.3-2.2-10.2v-12.6
			c0-7.6,6.1-13.7,13.7-13.7l0,0v24.4c0,3,0.8,5.4,2.3,7c1.6,1.7,3.7,2.5,6.3,2.5c2.7,0,4.8-0.8,6.4-2.5c1.6-1.7,2.3-4,2.3-7v-10.6
			C253.1,174.3,259.3,168.1,266.9,168.1L266.9,168.1z M292,179.5v20.6c0,7.2-5.8,13-13,13h-0.8v-33.6h-5v-6.4c0-2.8,2.2-5,5-5l0,0
			v-1.3c0-5.5,1.6-9.7,4.8-12.6c3.2-2.9,7.8-4.3,14-4.3c1,0,1.8,0,2.3,0.1v11.7c-2.6-0.2-4.5,0.2-5.6,1.1c-1.1,0.9-1.6,2.6-1.6,4.9
			v0.4h7.4v11.4H292z M319.6,153.4v45.9c0,7.6-6.2,13.8-13.8,13.8l0,0v-45.9C305.8,159.6,312,153.4,319.6,153.4L319.6,153.4z
			 M335.5,210.9c-3.5-1.9-6.3-4.6-8.3-8.1s-3-7.6-3-12.3c0-4.6,1-8.7,3.1-12.2c2-3.5,4.8-6.2,8.4-8.1c3.5-1.9,7.5-2.8,11.9-2.8
			s8.4,0.9,11.9,2.8c3.5,1.9,6.3,4.6,8.4,8.1c2,3.5,3.1,7.6,3.1,12.2c0,4.6-1,8.7-3.1,12.2s-4.9,6.2-8.5,8.1
			c-3.6,1.9-7.6,2.8-12,2.8C343,213.7,339,212.8,335.5,210.9z M354.1,198.9c1.9-1.9,2.8-4.7,2.8-8.3s-0.9-6.4-2.7-8.3
			c-1.8-1.9-4-2.9-6.7-2.9s-4.9,1-6.7,2.9c-1.8,1.9-2.7,4.7-2.7,8.4c0,3.6,0.9,6.4,2.6,8.3c1.7,1.9,3.9,2.9,6.6,2.9
			C350,201.8,352.3,200.8,354.1,198.9z M440.6,168.1l-8.2,30.3c-2.3,8.7-10.2,14.7-19.2,14.7l0,0l-7.2-29.2l-3.6,14.5
			c-2.2,8.7-10,14.7-18.9,14.7l0,0l-8.7-31.7c-1.8-6.7,3.2-13.3,10.2-13.3l0,0l6.4,32.2l4.2-18c2-8.3,9.4-14.2,18-14.2l0,0l7.7,32
			l3.8-19.2C426.5,173.4,433,168.1,440.6,168.1L440.6,168.1z"/>
		
			<linearGradient id="SVGID_00000165220027648576958730000008620363708258332317_" gradientUnits="userSpaceOnUse" x1="268.8268" y1="214.2688" x2="260.0328" y2="-213.6747" gradientTransform="matrix(1 0 0 -1 0 114)">
			<stop  offset="0" style="stop-color:#F5F5F7"/>
			<stop  offset="8.386584e-02" style="stop-color:#ECE9F7"/>
			<stop  offset="0.2344" style="stop-color:#D3CAF8"/>
			<stop  offset="0.4327" style="stop-color:#AA98F9"/>
			<stop  offset="0.5576" style="stop-color:#8E75FA"/>
			<stop  offset="0.6208" style="stop-color:#8670E8"/>
			<stop  offset="0.7472" style="stop-color:#7262BA"/>
			<stop  offset="0.9234" style="stop-color:#514D71"/>
			<stop  offset="0.9993" style="stop-color:#42434F"/>
		</linearGradient>
		<path style="display:none;fill:url(#SVGID_00000165220027648576958730000008620363708258332317_);" d="M123.1,156.5v0.7
			c0,5.8-4.7,10.4-10.4,10.4H100v11.9h17.3v1c0,5.3-4.3,9.7-9.7,9.7H100v11.5c0,5.1-3.4,9.4-8,10.9c-1.1,0.3-2.2,0.5-3.4,0.5h-2.4
			v-53.4c0-6.2,5.1-11.3,11.3-11.3h2.5v8.1C106.6,156.5,123.1,156.5,123.1,156.5z M167.2,189.7L167.2,189.7c0-4.6-1-8.5-2.9-11.9
			s-4.5-6-7.9-7.8c-3.4-1.8-7.2-2.7-11.6-2.7c-4.5,0-8.5,0.9-11.9,2.8s-6.1,4.6-8,8.1c-1.9,3.5-2.9,7.6-2.9,12.3
			c0,4.7,1,8.8,2.9,12.3c2,3.5,4.7,6.2,8.1,8.1c3.5,1.9,7.4,2.8,11.8,2.8c3.6,0,6.9-0.7,9.9-2c3-1.4,5.4-3.2,7.4-5.6
			c2-2.4,3.3-5,4.1-8h-14.7c-1.4,2.9-3.8,4.4-7.2,4.4c-2.3,0-4.2-0.7-5.8-2.2s-2.5-3.6-2.7-6.4H163
			C165.3,193.9,167.2,192,167.2,189.7z M135.9,186.2c0.3-2.4,1.3-4.4,2.9-5.7c1.5-1.3,3.5-2,5.8-2c2.5,0,4.5,0.7,6.1,2.1
			c1.6,1.4,2.4,3.2,2.4,5.6H135.9z M199.8,167.5c-3,0-5.7,0.6-8.1,1.8s-4.3,2.8-5.7,4.8v-20.7l0,0c-7.6,0-13.8,6.2-13.8,13.8V213
			l0,0c7.6,0,13.8-6.2,13.8-13.8v-10.6c0-3,0.7-5.3,2.3-7c1.6-1.7,3.7-2.5,6.3-2.5s4.7,0.8,6.3,2.5c1.5,1.6,2.3,4,2.3,7v24.5h0.8
			c7.1,0,12.9-5.8,12.9-12.9v-13.4c0-6-1.6-10.7-4.7-14.1C209,169.3,204.9,167.6,199.8,167.5z M266.9,168.1
			c-7.6,0-13.8,6.2-13.8,13.8v10.6c0,3-0.7,5.3-2.3,7s-3.7,2.5-6.4,2.5c-2.6,0-4.7-0.8-6.3-2.5c-1.5-1.6-2.3-4-2.3-7v-24.4l0,0
			c-7.6,0-13.7,6.1-13.7,13.7v12.6c0,3.9,0.7,7.3,2.2,10.2c1.4,2.9,3.5,5.2,6.1,6.7s5.7,2.3,9.1,2.3c2.9,0,5.5-0.6,7.9-1.8
			s4.3-2.8,5.7-4.8v6.1h0.9c7.1,0,12.9-5.7,12.9-12.9V168.1L266.9,168.1z M299.5,179.5v-11.4h-7.4v-0.4c0-2.3,0.5-4,1.6-4.9
			c1.1-0.9,3-1.3,5.6-1.1V150c-0.5-0.1-1.3-0.1-2.3-0.1c-6.2,0-10.8,1.4-14,4.3c-3.2,2.9-4.8,7.1-4.8,12.6v1.3l0,0c-2.8,0-5,2.2-5,5
			v6.4h5v33.6h0.8c7.2,0,13-5.8,13-13v-20.6H299.5z M319.6,153.4c-7.6,0-13.8,6.2-13.8,13.8v45.9l0,0c7.6,0,13.8-6.2,13.8-13.8
			V153.4L319.6,153.4z M347.4,213.6c4.4,0,8.4-0.9,12-2.8c3.6-1.9,6.4-4.6,8.5-8.1s3.1-7.6,3.1-12.2c0-4.6-1.1-8.7-3.1-12.2
			c-2.1-3.5-4.9-6.2-8.4-8.1c-3.5-1.9-7.5-2.8-11.9-2.8s-8.4,0.9-11.9,2.8c-3.6,1.9-6.4,4.6-8.4,8.1c-2.1,3.5-3.1,7.6-3.1,12.2
			c0,4.7,1,8.8,3,12.3s4.8,6.2,8.3,8.1C339,212.8,343,213.7,347.4,213.6z M347.3,201.9c-2.7,0-4.9-1-6.6-2.9
			c-1.7-1.9-2.6-4.7-2.6-8.3c0-3.7,0.9-6.5,2.7-8.4c1.8-1.9,4-2.9,6.7-2.9s4.9,1,6.7,2.9c1.8,1.9,2.7,4.7,2.7,8.3
			c0,3.6-0.9,6.4-2.8,8.3C352.3,200.8,350,201.8,347.3,201.9z M440.6,168.1c-7.6,0-14.1,5.3-15.5,12.8l-3.8,19.2l-7.7-32l0,0
			c-8.6,0-16,5.9-18,14.2l-4.2,18l-6.4-32.2l0,0c-7,0-12,6.6-10.2,13.3l8.7,31.7l0,0c8.9,0,16.7-6,18.9-14.7l3.6-14.5l7.2,29.2l0,0
			c9,0,16.9-6,19.2-14.7L440.6,168.1L440.6,168.1z"/>
		
			<linearGradient id="SVGID_00000150082067158707293730000001053921402992043668_" gradientUnits="userSpaceOnUse" x1="55.9426" y1="-104.1828" x2="-1.191" y2="-322.2793" gradientTransform="matrix(1 0 0 -1 0 -72)">
			<stop  offset="0" style="stop-color:#F5F5F7"/>
			<stop  offset="8.000000e-02" style="stop-color:#EBE9F7"/>
			<stop  offset="0.23" style="stop-color:#D2CAF8"/>
			<stop  offset="0.43" style="stop-color:#AA98F9"/>
			<stop  offset="0.56" style="stop-color:#8E75FA"/>
			<stop  offset="0.62" style="stop-color:#866FE8"/>
			<stop  offset="0.75" style="stop-color:#7162BA"/>
			<stop  offset="0.92" style="stop-color:#514C70"/>
		</linearGradient>
		<path style="display:none;fill:url(#SVGID_00000150082067158707293730000001053921402992043668_);" d="M41,163.8L41,163.8
			l-23.9,20V168l27-23.7c4.8-4.2,5.2-11.5,1.1-16.2l0,0l-28,24.6v-14.8h-5.3c-6,0-10.9,4.9-10.9,10.9v86.6l0,0
			c8.9,0,16.1-7.2,16.1-16.1v-20.1L40,180C44.7,175.8,45.2,168.6,41,163.8z"/>
	</g>
	
		<linearGradient id="SVGID_00000029027576865895644160000016831855971202792862_" gradientUnits="userSpaceOnUse" x1="199.5972" y1="136.5037" x2="191.8083" y2="515.8217" gradientTransform="matrix(1 0 0 1 0 -204)">
		<stop  offset="0" style="stop-color:#F5F5F7"/>
		<stop  offset="8.000000e-02" style="stop-color:#EBE9F7"/>
		<stop  offset="0.23" style="stop-color:#D2CAF8"/>
		<stop  offset="0.43" style="stop-color:#AA98F9"/>
		<stop  offset="0.56" style="stop-color:#8E75FA"/>
		<stop  offset="0.62" style="stop-color:#866FE8"/>
		<stop  offset="0.75" style="stop-color:#7162BA"/>
		<stop  offset="0.92" style="stop-color:#514C70"/>
		<stop  offset="1" style="stop-color:#42434F"/>
	</linearGradient>
	
		<path style="display:none;opacity:0.44;fill:url(#SVGID_00000029027576865895644160000016831855971202792862_);enable-background:new    ;" d="
		M212.1,172.7c3.1,3.4,4.7,8.1,4.7,14V213h-13.7v-24.4c0-3-0.8-5.4-2.3-7c-1.5-1.6-3.7-2.5-6.3-2.5s-4.7,0.9-6.3,2.5
		c-1.5,1.6-2.3,4-2.3,7V213h-13.8v-59.6h13.8v20.7c1.4-2,3.3-3.6,5.7-4.8s5.1-1.7,8.2-1.7C204.9,167.5,209,169.3,212.1,172.7
		L212.1,172.7z"/>
</g>
<g id="Layer_3_00000085217727349337141540000006371433797821630385_">
	
		<linearGradient id="SVGID_00000031909687579398055230000014390763449840144305_" gradientUnits="userSpaceOnUse" x1="57.5072" y1="472.39" x2="17.1303" y2="318.2592" gradientTransform="matrix(1 0 0 1 0 -186)">
		<stop  offset="0" style="stop-color:#F5F5F7"/>
		<stop  offset="8.000000e-02" style="stop-color:#EBE9F7"/>
		<stop  offset="0.23" style="stop-color:#D2CAF8"/>
		<stop  offset="0.43" style="stop-color:#AA98F9"/>
		<stop  offset="0.56" style="stop-color:#8E75FA"/>
		<stop  offset="0.62" style="stop-color:#866FE8"/>
		<stop  offset="0.75" style="stop-color:#7162BA"/>
		<stop  offset="0.92" style="stop-color:#514C70"/>
	</linearGradient>
	<path style="fill:url(#SVGID_00000031909687579398055230000014390763449840144305_);" d="M47.4,154.8c5.8-5.1,6.4-14,1.3-19.8
		L24,156.6v-12.9c-7.8,0-14,6.3-14,14V169v18.7v9v18.7v13.3c7.8,0,14-6.3,14-14V203l19.5-17.1c5.8-5.1,6.4-14,1.3-19.8L24,184.3v-9
		L47.4,154.8z"/>
</g>
</svg>
