<?xml version="1.0" encoding="utf-8"?>
<!-- Generator: Adobe Illustrator 26.5.0, SVG Export Plug-In . SVG Version: 6.00 Build 0)  -->
<svg version="1.1" id="Layer_2_00000044875047828879815420000005470809905512159422_"
	 xmlns="http://www.w3.org/2000/svg" xmlns:xlink="http://www.w3.org/1999/xlink" x="0px" y="0px" viewBox="0 0 199 199"
	 style="enable-background:new 0 0 199 199;" xml:space="preserve">
<style type="text/css">
	.st0{fill:#42434F;}
	.st1{fill:url(#SVGID_1_);}
	.st2{fill:#F5F5F7;}
	.st3{display:none;}
	.st4{display:inline;}
	.st5{fill:url(#SVGID_00000166673330588896932470000015086749528940206976_);}
</style>
<g id="Layer_2_00000077297751335406974070000003831721532791891350_">
	<g>
		<g>
			<circle class="st0" cx="99.5" cy="99.5" r="99.5"/>
			
				<linearGradient id="SVGID_1_" gradientUnits="userSpaceOnUse" x1="187.0565" y1="847.8375" x2="30.3945" y2="1119.1625" gradientTransform="matrix(1 0 0 1 0 -900)">
				<stop  offset="0" style="stop-color:#F5F5F7"/>
				<stop  offset="8.000000e-02" style="stop-color:#EBE9F7"/>
				<stop  offset="0.23" style="stop-color:#D2CAF8"/>
				<stop  offset="0.43" style="stop-color:#AA98F9"/>
				<stop  offset="0.56" style="stop-color:#8E75FA"/>
				<stop  offset="0.62" style="stop-color:#866FE8"/>
				<stop  offset="0.75" style="stop-color:#7162BA"/>
				<stop  offset="0.92" style="stop-color:#514C70"/>
				<stop  offset="1" style="stop-color:#42434F"/>
			</linearGradient>
			<path class="st1" d="M99.5,8C149.9,8,191,49,191,99.5S149.9,191,99.5,191S8,149.9,8,99.5S49,8,99.5,8 M99.5,0
				C44.5,0,0,44.5,0,99.5S44.5,199,99.5,199S199,154.4,199,99.5S154.4,0,99.5,0L99.5,0z"/>
		</g>
		<path class="st2" d="M130.9,60.1c8.7-7.6,9.6-20.9,1.9-29.6L95.9,62.8V43.5C84.3,43.5,75,52.9,75,64.4v106.1
			c11.7,0,20.9-9.4,20.9-20.9v-17.5l29.1-25.5c8.7-7.6,9.6-20.9,1.9-29.6l-31.1,27.2V90.7L130.9,60.1z"/>
	</g>
</g>
<g id="Layer_1-2" class="st3">
	<g id="Layer_3" class="st4">
		
			<linearGradient id="SVGID_00000091698384055220087880000018184598604941955470_" gradientUnits="userSpaceOnUse" x1="165.7047" y1="103.8366" x2="49.9395" y2="-238.0055" gradientTransform="matrix(1 0 0 -1 0 -4)">
			<stop  offset="0" style="stop-color:#F5F5F7"/>
			<stop  offset="8.000000e-02" style="stop-color:#EBE9F7"/>
			<stop  offset="0.23" style="stop-color:#D2CAF8"/>
			<stop  offset="0.24" style="stop-color:#CDC4F8"/>
			<stop  offset="0.26" style="stop-color:#BDB0F8"/>
			<stop  offset="0.29" style="stop-color:#B2A2F8"/>
			<stop  offset="0.33" style="stop-color:#AB9AF8"/>
			<stop  offset="0.39" style="stop-color:#AA98F9"/>
			<stop  offset="0.56" style="stop-color:#8E75FA"/>
			<stop  offset="0.62" style="stop-color:#866FE8"/>
			<stop  offset="0.75" style="stop-color:#7162BA"/>
			<stop  offset="0.92" style="stop-color:#514C70"/>
		</linearGradient>
		<path style="fill:url(#SVGID_00000091698384055220087880000018184598604941955470_);" d="M130.4,59.6c8.7-7.6,9.6-20.9,1.9-29.6
			L95.4,62.3V43c-11.7,0-20.9,9.4-20.9,20.9V170c11.7,0,20.9-9.4,20.9-20.9v-17.5l29.1-25.5c8.7-7.6,9.6-20.9,1.9-29.6l-31.1,27.2
			V90.2L130.4,59.6z"/>
	</g>
</g>
</svg>
