<?xml version="1.0" encoding="UTF-8"?>
<svg id="Layer_2" data-name="Layer 2" xmlns="http://www.w3.org/2000/svg" viewBox="0 0 354.4 63.8">
  <defs>
    <style>
      .cls-1 {
        fill: #191919;
      }
    </style>
  </defs>
  <g id="Layer_1-2" data-name="Layer 1">
    <g id="Wordmark">
      <path class="cls-1" d="M36.9,6.6v.7c0,5.8-4.7,10.4-10.4,10.4H13.8v11.9H31.1v1c0,5.3-4.3,9.7-9.7,9.7h-7.6v11.5c0,6.3-5.1,11.4-11.4,11.4H0V15.5C0,10.6,4,6.6,8.9,6.6c0,0,28,0,28,0Zm39.9,37.4h-27.2c.2,2.8,1.1,4.9,2.7,6.4,1.6,1.5,3.5,2.2,5.8,2.2,3.4,0,5.8-1.5,7.2-4.4h14.7c-.8,3-2.1,5.6-4.1,8s-4.4,4.2-7.4,5.6c-3,1.3-6.3,2-9.9,2-4.4,0-8.3-.9-11.8-2.8-3.4-1.9-6.1-4.6-8.1-8.1-1.9-3.5-2.9-7.6-2.9-12.3s1-8.8,2.9-12.3,4.6-6.2,8-8.1,7.4-2.8,11.9-2.8,8.2,.9,11.6,2.7c3.4,1.8,6,4.4,7.9,7.8,1.9,3.4,2.9,7.3,2.9,11.9h0c0,2.3-1.9,4.2-4.2,4.2Zm-9.9-7.7c0-2.4-.8-4.2-2.4-5.6-1.6-1.4-3.6-2.1-6.1-2.1-2.3,0-4.3,.7-5.8,2-1.6,1.3-2.6,3.3-2.9,5.7h17.2Zm59.1-13.5c3.1,3.4,4.7,8.1,4.7,14.1v13.4c0,7.1-5.8,12.9-12.9,12.9h-.8v-24.5c0-3-.8-5.4-2.3-7-1.6-1.7-3.7-2.5-6.3-2.5s-4.7,.8-6.3,2.5-2.3,4-2.3,7v10.6c0,7.6-6.2,13.8-13.8,13.8h0V17.3c0-7.6,6.2-13.8,13.8-13.8h0V24.2c1.4-2,3.3-3.6,5.7-4.8s5.1-1.8,8.1-1.8c5.1,.1,9.2,1.8,12.4,5.2Zm54.7-4.6V50.3c0,7.2-5.8,12.9-12.9,12.9h-.9v-6.1c-1.4,2-3.3,3.6-5.7,4.8-2.4,1.2-5,1.8-7.9,1.8-3.4,0-6.5-.8-9.1-2.3s-4.7-3.8-6.1-6.7c-1.5-2.9-2.2-6.3-2.2-10.2v-12.6c0-7.6,6.1-13.7,13.7-13.7h0v24.4c0,3,.8,5.4,2.3,7,1.6,1.7,3.7,2.5,6.3,2.5s4.8-.8,6.4-2.5c1.6-1.7,2.3-4,2.3-7v-10.6c0-7.6,6.2-13.8,13.8-13.8h0Zm25.1,11.4v20.6c0,7.2-5.8,13-13,13h-.8V29.6h-5v-6.4c0-2.8,2.2-5,5-5h0v-1.3c0-5.5,1.6-9.7,4.8-12.6,3.2-2.9,7.8-4.3,14-4.3,1,0,1.8,0,2.3,.1V11.8c-2.6-.2-4.5,.2-5.6,1.1-1.1,.9-1.6,2.6-1.6,4.9v.4h7.4v11.4h-7.5ZM233.4,3.5V49.4c0,7.6-6.2,13.8-13.8,13.8h0V17.3c0-7.6,6.2-13.8,13.8-13.8h0Zm15.9,57.5c-3.5-1.9-6.3-4.6-8.3-8.1s-3-7.6-3-12.3,1-8.7,3.1-12.2c2-3.5,4.8-6.2,8.4-8.1,3.5-1.9,7.5-2.8,11.9-2.8s8.4,.9,11.9,2.8c3.5,1.9,6.3,4.6,8.4,8.1,2,3.5,3.1,7.6,3.1,12.2s-1,8.7-3.1,12.2-4.9,6.2-8.5,8.1-7.6,2.8-12,2.8c-4.4,.1-8.4-.8-11.9-2.7Zm18.6-12c1.9-1.9,2.8-4.7,2.8-8.3s-.9-6.4-2.7-8.3c-1.8-1.9-4-2.9-6.7-2.9s-4.9,1-6.7,2.9c-1.8,1.9-2.7,4.7-2.7,8.4s.9,6.4,2.6,8.3,3.9,2.9,6.6,2.9c2.7-.1,5-1.1,6.8-3Zm86.5-30.8l-8.2,30.3c-2.3,8.7-10.2,14.7-19.2,14.7h0l-7.2-29.2-3.6,14.5c-2.2,8.7-10,14.7-18.9,14.7h0l-8.7-31.7c-1.8-6.7,3.2-13.3,10.2-13.3h0l6.4,32.2,4.2-18c2-8.3,9.4-14.2,18-14.2h0l7.7,32,3.8-19.2c1.4-7.5,7.9-12.8,15.5-12.8h0Z"/>
    </g>
  </g>
</svg>