<?xml version="1.0" encoding="utf-8"?>
<!-- Generator: Adobe Illustrator 26.5.0, SVG Export Plug-In . SVG Version: 6.00 Build 0)  -->
<svg version="1.1" id="Layer_1" xmlns="http://www.w3.org/2000/svg" xmlns:xlink="http://www.w3.org/1999/xlink" x="0px" y="0px"
	 viewBox="0 0 441.2 111.6" style="enable-background:new 0 0 441.2 111.6;" xml:space="preserve">
<style type="text/css">
	.st0{fill:#191919;}
</style>
<g id="Wordmark">
	<g>
		<path class="st0" d="M123.1,30.5v0.7c0,5.8-4.7,10.4-10.4,10.4H100v11.9h17.3v1c0,5.3-4.3,9.7-9.7,9.7H100v11.5
			c0,6.3-5.1,11.4-11.4,11.4h-2.4V39.4c0-4.9,4-8.9,8.9-8.9C95.1,30.5,123.1,30.5,123.1,30.5z M163,67.9h-27.2
			c0.2,2.8,1.1,4.9,2.7,6.4c1.6,1.5,3.5,2.2,5.8,2.2c3.4,0,5.8-1.5,7.2-4.4h14.7c-0.8,3-2.1,5.6-4.1,8s-4.4,4.2-7.4,5.6
			c-3,1.3-6.3,2-9.9,2c-4.4,0-8.3-0.9-11.8-2.8c-3.4-1.9-6.1-4.6-8.1-8.1c-1.9-3.5-2.9-7.6-2.9-12.3s1-8.8,2.9-12.3s4.6-6.2,8-8.1
			s7.4-2.8,11.9-2.8c4.4,0,8.2,0.9,11.6,2.7c3.4,1.8,6,4.4,7.9,7.8c1.9,3.4,2.9,7.3,2.9,11.9l0,0C167.2,66,165.3,67.9,163,67.9z
			 M153.1,60.2c0-2.4-0.8-4.2-2.4-5.6c-1.6-1.4-3.6-2.1-6.1-2.1c-2.3,0-4.3,0.7-5.8,2c-1.6,1.3-2.6,3.3-2.9,5.7L153.1,60.2z
			 M212.2,46.7c3.1,3.4,4.7,8.1,4.7,14.1v13.4c0,7.1-5.8,12.9-12.9,12.9h-0.8V62.6c0-3-0.8-5.4-2.3-7c-1.6-1.7-3.7-2.5-6.3-2.5
			s-4.7,0.8-6.3,2.5s-2.3,4-2.3,7v10.6c0,7.6-6.2,13.8-13.8,13.8l0,0V41.2c0-7.6,6.2-13.8,13.8-13.8l0,0v20.7c1.4-2,3.3-3.6,5.7-4.8
			s5.1-1.8,8.1-1.8C204.9,41.6,209,43.3,212.2,46.7z M266.9,42.1v32.1c0,7.2-5.8,12.9-12.9,12.9h-0.9V81c-1.4,2-3.3,3.6-5.7,4.8
			c-2.4,1.2-5,1.8-7.9,1.8c-3.4,0-6.5-0.8-9.1-2.3s-4.7-3.8-6.1-6.7c-1.5-2.9-2.2-6.3-2.2-10.2V55.8c0-7.6,6.1-13.7,13.7-13.7l0,0
			v24.4c0,3,0.8,5.4,2.3,7c1.6,1.7,3.7,2.5,6.3,2.5c2.7,0,4.8-0.8,6.4-2.5c1.6-1.7,2.3-4,2.3-7V55.9
			C253.1,48.3,259.3,42.1,266.9,42.1L266.9,42.1z M292,53.5v20.6c0,7.2-5.8,13-13,13h-0.8V53.5h-5v-6.4c0-2.8,2.2-5,5-5l0,0v-1.3
			c0-5.5,1.6-9.7,4.8-12.6c3.2-2.9,7.8-4.3,14-4.3c1,0,1.8,0,2.3,0.1v11.7c-2.6-0.2-4.5,0.2-5.6,1.1c-1.1,0.9-1.6,2.6-1.6,4.9v0.4
			h7.4v11.4H292z M319.6,27.4v45.9c0,7.6-6.2,13.8-13.8,13.8l0,0V41.2C305.8,33.6,312,27.4,319.6,27.4L319.6,27.4z M335.5,84.9
			c-3.5-1.9-6.3-4.6-8.3-8.1s-3-7.6-3-12.3c0-4.6,1-8.7,3.1-12.2c2-3.5,4.8-6.2,8.4-8.1c3.5-1.9,7.5-2.8,11.9-2.8s8.4,0.9,11.9,2.8
			c3.5,1.9,6.3,4.6,8.4,8.1c2,3.5,3.1,7.6,3.1,12.2s-1,8.7-3.1,12.2s-4.9,6.2-8.5,8.1s-7.6,2.8-12,2.8C343,87.7,339,86.8,335.5,84.9
			z M354.1,72.9c1.9-1.9,2.8-4.7,2.8-8.3c0-3.6-0.9-6.4-2.7-8.3c-1.8-1.9-4-2.9-6.7-2.9s-4.9,1-6.7,2.9c-1.8,1.9-2.7,4.7-2.7,8.4
			c0,3.6,0.9,6.4,2.6,8.3s3.9,2.9,6.6,2.9C350,75.8,352.3,74.8,354.1,72.9z M440.6,42.1l-8.2,30.3c-2.3,8.7-10.2,14.7-19.2,14.7l0,0
			L406,57.9l-3.6,14.5c-2.2,8.7-10,14.7-18.9,14.7l0,0l-8.7-31.7C373,48.7,378,42.1,385,42.1l0,0l6.4,32.2l4.2-18
			c2-8.3,9.4-14.2,18-14.2l0,0l7.7,32l3.8-19.2C426.5,47.4,433,42.1,440.6,42.1L440.6,42.1z"/>
	</g>
</g>
<g id="Icon">
	<path class="st0" d="M47.4,28.8c5.8-5.1,6.4-14,1.3-19.8L24,30.6V17.7c-7.8,0-14,6.3-14,14V43v18.7v9v18.7v13.3c7.8,0,14-6.3,14-14
		V77l19.5-17.1c5.8-5.1,6.4-14,1.3-19.8L24,58.3v-9L47.4,28.8z"/>
</g>
</svg>
