<?xml version="1.0" encoding="utf-8"?>
<!-- Generator: Adobe Illustrator 26.5.0, SVG Export Plug-In . SVG Version: 6.00 Build 0)  -->
<svg version="1.1" id="Wordmark" xmlns="http://www.w3.org/2000/svg" xmlns:xlink="http://www.w3.org/1999/xlink" x="0px" y="0px"
	 viewBox="0 0 354.4 63.8" style="enable-background:new 0 0 354.4 63.8;" xml:space="preserve">
<style type="text/css">
	.st0{fill:url(#SVGID_1_);}
</style>
<linearGradient id="SVGID_1_" gradientUnits="userSpaceOnUse" x1="213.2356" y1="11.1796" x2="142.8855" y2="841.4296" gradientTransform="matrix(1 0 0 1 0 -419.8)">
	<stop  offset="0" style="stop-color:#F5F5F7"/>
	<stop  offset="8.000000e-02" style="stop-color:#EBE9F7"/>
	<stop  offset="0.23" style="stop-color:#D2CAF8"/>
	<stop  offset="0.24" style="stop-color:#CDC4F8"/>
	<stop  offset="0.26" style="stop-color:#BDB0F8"/>
	<stop  offset="0.29" style="stop-color:#B2A2F8"/>
	<stop  offset="0.33" style="stop-color:#AB9AF8"/>
	<stop  offset="0.39" style="stop-color:#AA98F9"/>
	<stop  offset="0.54" style="stop-color:#8E75FA"/>
	<stop  offset="0.63" style="stop-color:#866FE8"/>
	<stop  offset="0.75" style="stop-color:#7162BA"/>
	<stop  offset="0.92" style="stop-color:#514C70"/>
</linearGradient>
<path class="st0" d="M36.9,6.6v0.7c0,5.8-4.7,10.4-10.4,10.4H13.8v11.9h17.3v1c0,5.3-4.3,9.7-9.7,9.7h-7.6v11.5
	c0,6.3-5.1,11.4-11.4,11.4H0V15.5c0-4.9,4-8.9,8.9-8.9H36.9z M76.8,44H49.6c0.2,2.8,1.1,4.9,2.7,6.4c1.6,1.5,3.5,2.2,5.8,2.2
	c3.4,0,5.8-1.5,7.2-4.4H80c-0.8,3-2.1,5.6-4.1,8s-4.4,4.2-7.4,5.6c-3,1.3-6.3,2-9.9,2c-4.4,0-8.3-0.9-11.8-2.8
	c-3.4-1.9-6.1-4.6-8.1-8.1c-1.9-3.5-2.9-7.6-2.9-12.3s1-8.8,2.9-12.3s4.6-6.2,8-8.1s7.4-2.8,11.9-2.8s8.2,0.9,11.6,2.7
	c3.4,1.8,6,4.4,7.9,7.8S81,35.2,81,39.8l0,0C81,42.1,79.1,44,76.8,44z M66.9,36.3c0-2.4-0.8-4.2-2.4-5.6s-3.6-2.1-6.1-2.1
	c-2.3,0-4.3,0.7-5.8,2c-1.6,1.3-2.6,3.3-2.9,5.7H66.9z M126,22.8c3.1,3.4,4.7,8.1,4.7,14.1v13.4c0,7.1-5.8,12.9-12.9,12.9H117V38.7
	c0-3-0.8-5.4-2.3-7c-1.6-1.7-3.7-2.5-6.3-2.5s-4.7,0.8-6.3,2.5s-2.3,4-2.3,7v10.6c0,7.6-6.2,13.8-13.8,13.8l0,0V17.3
	c0-7.6,6.2-13.8,13.8-13.8l0,0v20.7c1.4-2,3.3-3.6,5.7-4.8s5.1-1.8,8.1-1.8C118.7,17.7,122.8,19.4,126,22.8L126,22.8z M180.7,18.2
	v32.1c0,7.2-5.8,12.9-12.9,12.9h-0.9v-6.1c-1.4,2-3.3,3.6-5.7,4.8s-5,1.8-7.9,1.8c-3.4,0-6.5-0.8-9.1-2.3s-4.7-3.8-6.1-6.7
	c-1.5-2.9-2.2-6.3-2.2-10.2V31.9c0-7.6,6.1-13.7,13.7-13.7l0,0v24.4c0,3,0.8,5.4,2.3,7c1.6,1.7,3.7,2.5,6.3,2.5s4.8-0.8,6.4-2.5
	c1.6-1.7,2.3-4,2.3-7V32C166.9,24.4,173.1,18.2,180.7,18.2L180.7,18.2L180.7,18.2z M205.8,29.6v20.6c0,7.2-5.8,13-13,13H192V29.6h-5
	v-6.4c0-2.8,2.2-5,5-5l0,0v-1.3c0-5.5,1.6-9.7,4.8-12.6s7.8-4.3,14-4.3c1,0,1.8,0,2.3,0.1v11.7c-2.6-0.2-4.5,0.2-5.6,1.1
	c-1.1,0.9-1.6,2.6-1.6,4.9v0.4h7.4v11.4L205.8,29.6L205.8,29.6z M233.4,3.5v45.9c0,7.6-6.2,13.8-13.8,13.8l0,0V17.3
	C219.6,9.7,225.8,3.5,233.4,3.5C233.4,3.5,233.4,3.5,233.4,3.5z M249.3,61c-3.5-1.9-6.3-4.6-8.3-8.1s-3-7.6-3-12.3s1-8.7,3.1-12.2
	c2-3.5,4.8-6.2,8.4-8.1c3.5-1.9,7.5-2.8,11.9-2.8s8.4,0.9,11.9,2.8s6.3,4.6,8.4,8.1c2,3.5,3.1,7.6,3.1,12.2s-1,8.7-3.1,12.2
	s-4.9,6.2-8.5,8.1s-7.6,2.8-12,2.8C256.8,63.8,252.8,62.9,249.3,61z M267.9,49c1.9-1.9,2.8-4.7,2.8-8.3s-0.9-6.4-2.7-8.3
	c-1.8-1.9-4-2.9-6.7-2.9s-4.9,1-6.7,2.9c-1.8,1.9-2.7,4.7-2.7,8.4s0.9,6.4,2.6,8.3s3.9,2.9,6.6,2.9C263.8,51.9,266.1,50.9,267.9,49
	L267.9,49z M354.4,18.2l-8.2,30.3c-2.3,8.7-10.2,14.7-19.2,14.7l0,0L319.8,34l-3.6,14.5c-2.2,8.7-10,14.7-18.9,14.7l0,0l-8.7-31.7
	c-1.8-6.7,3.2-13.3,10.2-13.3l0,0l6.4,32.2l4.2-18c2-8.3,9.4-14.2,18-14.2l0,0l7.7,32l3.8-19.2C340.3,23.5,346.8,18.2,354.4,18.2
	L354.4,18.2L354.4,18.2z"/>
</svg>
